<svg width="64" height="64" viewBox="0 0 64 64" fill="none" xmlns="http://www.w3.org/2000/svg">
<path d="M60.1794 30.4464L54 33.5361L46 18.2156L52.2423 15.0944C52.7113 14.86 53.2536 14.819 53.7525 14.9804C54.2514 15.1419 54.6669 15.4928 54.9096 15.9576L61.0578 27.7318C61.1808 27.9673 61.2556 28.2248 61.2779 28.4895C61.3002 28.7541 61.2696 29.0206 61.1878 29.2733C61.1061 29.526 60.9748 29.7599 60.8016 29.9613C60.6285 30.1627 60.417 30.3276 60.1794 30.4464V30.4464Z" stroke="#00AAFF" stroke-width="3.5" stroke-linecap="round" stroke-linejoin="round"/>
<path d="M9.99989 33.268L3.82048 30.1784C3.58292 30.0596 3.37139 29.8947 3.19825 29.6932C3.02511 29.4918 2.89382 29.2579 2.81205 29.0052C2.73028 28.7525 2.69966 28.4861 2.72198 28.2214C2.7443 27.9568 2.81911 27.6992 2.94205 27.4638L9.09029 15.6895C9.33299 15.2247 9.74851 14.8738 10.2474 14.7124C10.7463 14.551 11.2886 14.5919 11.7576 14.8264L17.9999 17.9475L9.99989 33.268Z" stroke="#00AAFF" stroke-width="3.5" stroke-linecap="round" stroke-linejoin="round"/>
<path d="M54 33.536L50 38.2155L40.8007 47.4148C40.5565 47.659 40.2532 47.8358 39.9204 47.928C39.5875 48.0202 39.2365 48.0246 38.9014 47.9409L24.4122 44.3186C24.1404 44.2506 23.886 44.1263 23.6653 43.9538L10 33.2681" stroke="#00AAFF" stroke-width="3.5" stroke-linecap="round" stroke-linejoin="round"/>
<path d="M50 38.2153L39 30.2153L35.8 32.6153C34.4153 33.6539 32.731 34.2153 31 34.2153C29.2691 34.2153 27.5848 33.6539 26.2 32.6153L24.8449 31.5989C24.6156 31.427 24.426 31.2078 24.2889 30.9563C24.1517 30.7047 24.0702 30.4265 24.0499 30.1407C24.0296 29.8549 24.0709 29.568 24.1711 29.2996C24.2713 29.0311 24.428 28.7873 24.6306 28.5847L34.4143 18.8011C34.6 18.6154 34.8205 18.4681 35.0631 18.3676C35.3058 18.2671 35.5658 18.2153 35.8285 18.2153H46" stroke="#00AAFF" stroke-width="3.5" stroke-linecap="round" stroke-linejoin="round"/>
<path d="M18.1438 17.9473L30.9738 14.2069C31.4321 14.0733 31.9231 14.108 32.358 14.3048L41.0002 18.2152" stroke="#00AAFF" stroke-width="3.5" stroke-linecap="round" stroke-linejoin="round"/>
<path d="M28 53.2154L20.4651 51.3317C20.1594 51.2552 19.876 51.1076 19.6381 50.9008L14 46" stroke="#00AAFF" stroke-width="3.5" stroke-linecap="round" stroke-linejoin="round"/>
</svg>
