<svg width="64" height="64" viewBox="0 0 64 64" fill="none" xmlns="http://www.w3.org/2000/svg">
<path d="M14 58H50" stroke="#00AAFF" stroke-width="3.5" stroke-linecap="round" stroke-linejoin="round"/>
<path d="M32 34C36.4183 34 40 30.4183 40 26C40 21.5817 36.4183 18 32 18C27.5817 18 24 21.5817 24 26C24 30.4183 27.5817 34 32 34Z" stroke="#00AAFF" stroke-width="3.5" stroke-linecap="round" stroke-linejoin="round"/>
<path d="M52 26C52 44 32 58 32 58C32 58 12 44 12 26C12 20.6957 14.1071 15.6086 17.8579 11.8579C21.6086 8.10714 26.6957 6 32 6C37.3043 6 42.3914 8.10714 46.1421 11.8579C49.8929 15.6086 52 20.6957 52 26V26Z" stroke="#00AAFF" stroke-width="3.5" stroke-linecap="round" stroke-linejoin="round"/>
</svg>
