<svg width="64" height="64" viewBox="0 0 64 64" fill="none" xmlns="http://www.w3.org/2000/svg">
<path d="M56 44.3305V19.6699C56 19.315 55.9056 18.9666 55.7264 18.6602C55.5473 18.3539 55.2898 18.1008 54.9805 17.9268L32.9805 5.55177C32.6812 5.38338 32.3435 5.29492 32 5.29492C31.6565 5.29492 31.3188 5.38338 31.0195 5.55177L9.01948 17.9268C8.71018 18.1008 8.45274 18.3539 8.27358 18.6602C8.09442 18.9666 8 19.315 8 19.6699V44.3305C8 44.6854 8.09442 45.0339 8.27358 45.3402C8.45274 45.6466 8.71018 45.8997 9.01948 46.0737L31.0195 58.4487C31.3188 58.6171 31.6565 58.7055 32 58.7055C32.3435 58.7055 32.6812 58.6171 32.9805 58.4487L54.9805 46.0737C55.2898 45.8997 55.5473 45.6466 55.7264 45.3402C55.9056 45.0339 56 44.6854 56 44.3305Z" stroke="#00AAFF" stroke-width="3.5" stroke-linecap="round" stroke-linejoin="round"/>
<path d="M44.2555 38.1278V25.1278L20 11.75" stroke="#00AAFF" stroke-width="3.5" stroke-linecap="round" stroke-linejoin="round"/>
<path d="M55.7242 18.6568L32.2372 32L8.27698 18.6543" stroke="#00AAFF" stroke-width="3.5" stroke-linecap="round" stroke-linejoin="round"/>
<path d="M32.2373 32L32.0026 58.7053" stroke="#00AAFF" stroke-width="3.5" stroke-linecap="round" stroke-linejoin="round"/>
</svg>
