<svg width="64" height="64" viewBox="0 0 64 64" fill="none" xmlns="http://www.w3.org/2000/svg">
<path d="M22.0001 40C29.1798 40 35.0001 34.1797 35.0001 27C35.0001 19.8203 29.1798 14 22.0001 14C14.8204 14 9.00006 19.8203 9.00006 27C9.00006 34.1797 14.8204 40 22.0001 40Z" stroke="#00AAFF" stroke-width="3.5" stroke-miterlimit="10"/>
<path d="M38.8529 14.4843C40.641 13.9805 42.5162 13.8657 44.3523 14.1477C46.1885 14.4297 47.9429 15.1019 49.4974 16.119C51.0518 17.1361 52.3703 18.4745 53.364 20.0441C54.3576 21.6137 55.0034 23.378 55.2578 25.2181C55.5122 27.0583 55.3693 28.9316 54.8387 30.7119C54.3082 32.4922 53.4023 34.1381 52.182 35.5388C50.9618 36.9395 49.4556 38.0624 47.7648 38.832C46.074 39.6015 44.238 39.9998 42.3803 40" stroke="#00AAFF" stroke-width="3.5" stroke-linecap="round" stroke-linejoin="round"/>
<path d="M3.99921 49.3492C6.02954 46.4612 8.72494 44.1041 11.8578 42.4769C14.9907 40.8497 18.4691 40.0001 21.9994 40C25.5297 39.9999 29.0082 40.8491 32.1412 42.4761C35.2742 44.1031 37.9698 46.46 40.0003 49.3478" stroke="#00AAFF" stroke-width="3.5" stroke-linecap="round" stroke-linejoin="round"/>
<path d="M42.3803 40C45.9109 39.9975 49.3901 40.8457 52.5234 42.4728C55.6567 44.1 58.3517 46.4582 60.3804 49.3478" stroke="#00AAFF" stroke-width="3.5" stroke-linecap="round" stroke-linejoin="round"/>
</svg>
