<svg width="24" height="24" viewBox="0 0 24 24" fill="none" xmlns="http://www.w3.org/2000/svg">
<path d="M12 13.375C12.7594 13.375 13.375 12.7594 13.375 12C13.375 11.2406 12.7594 10.625 12 10.625C11.2406 10.625 10.625 11.2406 10.625 12C10.625 12.7594 11.2406 13.375 12 13.375Z" fill="#464D61" stroke="#464D61" stroke-width="0.5"/>
<path d="M18 13.375C18.7594 13.375 19.375 12.7594 19.375 12C19.375 11.2406 18.7594 10.625 18 10.625C17.2406 10.625 16.625 11.2406 16.625 12C16.625 12.7594 17.2406 13.375 18 13.375Z" fill="#464D61" stroke="#464D61" stroke-width="0.5"/>
<path d="M6 13.375C6.75939 13.375 7.375 12.7594 7.375 12C7.375 11.2406 6.75939 10.625 6 10.625C5.24061 10.625 4.625 11.2406 4.625 12C4.625 12.7594 5.24061 13.375 6 13.375Z" fill="#464D61" stroke="#464D61" stroke-width="0.5"/>
</svg>
