<svg width="80" height="80" viewBox="0 0 80 80" fill="none" xmlns="http://www.w3.org/2000/svg">
<path d="M10.6474 43.9836C7.85189 39.2711 6.8729 33.7002 7.89421 28.317C8.91552 22.9338 11.8669 18.1085 16.1941 14.7473C20.5213 11.3862 25.9267 9.72028 31.3953 10.0625C36.8638 10.4047 42.0194 12.7315 45.8938 16.6059C49.7682 20.4803 52.095 25.6358 52.4373 31.1044C52.7795 36.5729 51.1136 41.9784 47.7525 46.3056C44.3913 50.6328 39.5661 53.5842 34.1829 54.6055C28.7996 55.6269 23.2287 54.6479 18.5162 51.8525L18.5163 51.8522L10.7452 54.0725C10.4237 54.1644 10.0835 54.1686 9.75976 54.0847C9.43608 54.0008 9.14071 53.8319 8.90427 53.5955C8.66783 53.3591 8.49891 53.0637 8.41504 52.74C8.33116 52.4163 8.33537 52.0761 8.42723 51.7546L10.6475 43.9835L10.6474 43.9836Z" stroke="#00AAFF" stroke-width="4" stroke-linecap="round" stroke-linejoin="round"/>
<path d="M28.7681 54.9665C29.8741 58.1065 31.6628 60.9622 34.0053 63.3277C36.3478 65.6933 39.1857 67.5099 42.3147 68.6468C45.4437 69.7836 48.7859 70.2124 52.1005 69.9022C55.4151 69.592 58.6197 68.5505 61.4835 66.8529L61.4834 66.8526L69.2545 69.0729C69.576 69.1648 69.9162 69.169 70.2399 69.0851C70.5636 69.0013 70.859 68.8324 71.0954 68.5959C71.3318 68.3595 71.5007 68.0641 71.5846 67.7404C71.6685 67.4167 71.6643 67.0765 71.5724 66.755L69.3521 58.9839L69.3523 58.9841C71.3251 55.657 72.4071 51.8777 72.4939 48.0107C72.5808 44.1437 71.6696 40.3196 69.8482 36.9074C68.0268 33.4951 65.3567 30.6098 62.0956 28.5299C58.8344 26.4501 55.0923 25.2457 51.2302 25.0332" stroke="#00AAFF" stroke-width="4" stroke-linecap="round" stroke-linejoin="round"/>
</svg>
