<svg width="48" height="48" viewBox="0 0 48 48" fill="none" xmlns="http://www.w3.org/2000/svg">
<path d="M0 4C0 1.79086 1.79086 0 4 0H44C46.2091 0 48 1.79086 48 4V44C48 46.2091 46.2091 48 44 48H4C1.79086 48 0 46.2091 0 44V4Z" fill="#E8F7FF"/>
<path d="M24 32.25C24 32.25 14.625 27 14.625 20.625C14.6252 19.4983 15.0156 18.4064 15.7299 17.5349C16.4442 16.6635 17.4382 16.0664 18.543 15.845C19.6478 15.6237 20.7951 15.7918 21.79 16.3208C22.7848 16.8498 23.5658 17.707 24 18.7467L24 18.7467C24.4342 17.707 25.2152 16.8498 26.21 16.3208C27.2049 15.7918 28.3522 15.6237 29.457 15.845C30.5618 16.0664 31.5558 16.6635 32.2701 17.5349C32.9844 18.4064 33.3748 19.4983 33.375 20.625C33.375 27 24 32.25 24 32.25Z" stroke="#00AAFF" stroke-width="1.6" stroke-linecap="round" stroke-linejoin="round"/>
</svg>
