<svg width="22" height="22" viewBox="0 0 22 22" fill="none" xmlns="http://www.w3.org/2000/svg">
<path d="M0 11C0 4.92487 4.92487 0 11 0C17.0751 0 22 4.92487 22 11C22 17.0751 17.0751 22 11 22C4.92487 22 0 17.0751 0 11Z" fill="white"/>
<path d="M11 20.5C5.75329 20.5 1.5 16.2467 1.5 11H-1.5C-1.5 17.9036 4.09644 23.5 11 23.5V20.5ZM20.5 11C20.5 16.2467 16.2467 20.5 11 20.5V23.5C17.9036 23.5 23.5 17.9036 23.5 11H20.5ZM11 1.5C16.2467 1.5 20.5 5.75329 20.5 11H23.5C23.5 4.09644 17.9036 -1.5 11 -1.5V1.5ZM11 -1.5C4.09644 -1.5 -1.5 4.09644 -1.5 11H1.5C1.5 5.75329 5.75329 1.5 11 1.5V-1.5Z" fill="#C5C9D6"/>
    <path d="M14 8L10 12.5L8 10" stroke="#00AAFF" stroke-width="2" stroke-linecap="round" stroke-linejoin="round"/>

</svg>
