<svg width="80" height="80" viewBox="0 0 80 80" fill="none" xmlns="http://www.w3.org/2000/svg">
<path d="M59.626 36.3237C64.276 35.6704 67.856 31.6837 67.866 26.8537C67.866 22.0937 64.396 18.1471 59.846 17.4004" stroke="#00AAFF" stroke-width="4" stroke-linecap="round" stroke-linejoin="round"/>
<path d="M65.7627 47.502C70.266 48.1753 73.4094 49.752 73.4094 53.002C73.4094 55.2386 71.9294 56.692 69.536 57.6053" stroke="#00AAFF" stroke-width="4" stroke-linecap="round" stroke-linejoin="round"/>
<path fill-rule="evenodd" clip-rule="evenodd" d="M39.6231 48.8809C28.9098 48.8809 19.7598 50.5042 19.7598 56.9875C19.7598 63.4675 28.8531 65.1375 39.6231 65.1375C50.3364 65.1375 59.4831 63.5309 59.4831 57.0442C59.4831 50.5575 50.3931 48.8809 39.6231 48.8809Z" stroke="#00AAFF" stroke-width="4" stroke-linecap="round" stroke-linejoin="round"/>
<path fill-rule="evenodd" clip-rule="evenodd" d="M39.6236 39.628C46.6536 39.628 52.3536 33.9313 52.3536 26.898C52.3536 19.868 46.6536 14.168 39.6236 14.168C32.5936 14.168 26.8936 19.868 26.8936 26.898C26.867 33.9046 32.5236 39.6046 39.5303 39.628H39.6236Z" stroke="#00AAFF" stroke-width="4" stroke-linecap="round" stroke-linejoin="round"/>
<path d="M19.6179 36.3237C14.9646 35.6704 11.3879 31.6837 11.3779 26.8537C11.3779 22.0937 14.8479 18.1471 19.3979 17.4004" stroke="#00AAFF" stroke-width="4" stroke-linecap="round" stroke-linejoin="round"/>
<path d="M13.4807 47.502C8.97732 48.1753 5.83398 49.752 5.83398 53.002C5.83398 55.2386 7.31398 56.692 9.70732 57.6053" stroke="#00AAFF" stroke-width="4" stroke-linecap="round" stroke-linejoin="round"/>
</svg>
