<svg width="64" height="22" viewBox="0 0 64 22" fill="none" xmlns="http://www.w3.org/2000/svg">
<path d="M27.9596 20.8635H22.8174L26.0312 1.11268H31.1739L27.9596 20.8635ZM18.4915 1.11268L13.5892 14.6974L13.0091 11.7721L13.0097 11.7732L11.2794 2.89101C11.2794 2.89101 11.0702 1.11268 8.84017 1.11268H0.735723L0.640625 1.44711C0.640625 1.44711 3.11898 1.96275 6.01946 3.70463L10.4869 20.864H15.8446L24.0257 1.11268H18.4915ZM58.9372 20.8635H63.6588L59.5421 1.11216H55.4085C53.4997 1.11216 53.0348 2.58406 53.0348 2.58406L45.3656 20.8635H50.726L51.798 17.9297H58.3349L58.9372 20.8635ZM53.2788 13.8769L55.9807 6.48571L57.5006 13.8769H53.2788ZM45.7677 5.86229L46.5015 1.62093C46.5015 1.62093 44.2371 0.759766 41.8766 0.759766C39.3248 0.759766 33.265 1.87505 33.265 7.29827C33.265 12.4008 40.3772 12.4642 40.3772 15.1444C40.3772 17.8245 33.9978 17.3443 31.8924 15.6542L31.1279 20.0889C31.1279 20.0889 33.424 21.2042 36.9321 21.2042C40.4412 21.2042 45.7349 19.3873 45.7349 14.4422C45.7349 9.30695 38.5588 8.82882 38.5588 6.59613C38.5593 4.36292 43.5672 4.64979 45.7677 5.86229Z" fill="#2566AF"/>
</svg>
