<svg width="24" height="24" viewBox="0 0 24 24" fill="none" xmlns="http://www.w3.org/2000/svg">
<path d="M12 9.75V13.5" stroke="#464D61" stroke-width="1.6" stroke-linecap="round" stroke-linejoin="round"/>
<path d="M10.7018 3.74857L2.45399 17.9978C2.32201 18.2258 2.25242 18.4846 2.2522 18.748C2.25198 19.0115 2.32115 19.2703 2.45275 19.4986C2.58434 19.7268 2.77373 19.9163 3.00184 20.0481C3.22996 20.1799 3.48876 20.2493 3.7522 20.2493H20.2477C20.5112 20.2493 20.77 20.1799 20.9981 20.0481C21.2262 19.9163 21.4156 19.7268 21.5472 19.4986C21.6788 19.2703 21.748 19.0115 21.7478 18.748C21.7475 18.4846 21.6779 18.2258 21.546 17.9978L13.2982 3.74857C13.1664 3.52093 12.9771 3.33193 12.7493 3.20055C12.5214 3.06916 12.263 3 12 3C11.7369 3 11.4785 3.06916 11.2507 3.20055C11.0228 3.33193 10.8335 3.52093 10.7018 3.74857V3.74857Z" stroke="#464D61" stroke-width="1.6" stroke-linecap="round" stroke-linejoin="round"/>
<path d="M12 18C12.6213 18 13.125 17.4963 13.125 16.875C13.125 16.2537 12.6213 15.75 12 15.75C11.3787 15.75 10.875 16.2537 10.875 16.875C10.875 17.4963 11.3787 18 12 18Z" fill="#464D61"/>
</svg>
