<svg width="28" height="32" viewBox="0 0 28 32" fill="none" xmlns="http://www.w3.org/2000/svg">
<path d="M27.0563 24.938C26.5896 26.0249 26.0133 27.0614 25.3363 28.0313C24.431 29.3213 23.6903 30.214 23.1197 30.71C22.235 31.5233 21.2863 31.9407 20.271 31.964C19.5423 31.964 18.6637 31.7567 17.6403 31.336C16.6137 30.9173 15.6703 30.7093 14.8077 30.7093C13.903 30.7093 12.933 30.9173 11.895 31.336C10.8557 31.7567 10.0183 31.976 9.37833 31.9973C8.40499 32.0393 7.43433 31.6107 6.46499 30.71C5.84699 30.17 5.07433 29.246 4.14766 27.9367C3.15366 26.538 2.33633 24.9167 1.69633 23.0673C1.01099 21.0707 0.666992 19.1367 0.666992 17.2647C0.666992 15.12 1.13033 13.2707 2.05833 11.7207C2.78833 10.4753 3.75833 9.494 4.97299 8.77267C6.16465 8.05956 7.52435 7.67581 8.91299 7.66067C9.68633 7.66067 10.7003 7.9 11.961 8.37C13.2177 8.84133 14.0243 9.08067 14.3783 9.08067C14.6423 9.08067 15.539 8.80067 17.0583 8.24333C18.4957 7.726 19.7083 7.512 20.7017 7.59667C23.3943 7.814 25.417 8.87533 26.7617 10.7873C24.3543 12.246 23.163 14.2893 23.187 16.9107C23.2083 18.9527 23.949 20.652 25.405 22.0007C26.065 22.6273 26.8017 23.1113 27.621 23.4547C27.4492 23.9552 27.2609 24.4499 27.0563 24.938V24.938ZM20.8817 0.640667C20.8817 2.24067 20.297 3.73533 19.1317 5.118C17.725 6.76267 16.0243 7.71267 14.1797 7.56267C14.1549 7.36139 14.1424 7.15879 14.1423 6.956C14.1423 5.42 14.811 3.776 15.999 2.43133C16.5923 1.75067 17.3457 1.18467 18.2603 0.733333C19.1737 0.288667 20.0363 0.0426667 20.8483 0C20.8717 0.214 20.8817 0.428 20.8817 0.64V0.640667Z" fill="#191F33"/>
</svg>
